<svg width="15" height="20" viewBox="0 0 15 20" fill="none" xmlns="http://www.w3.org/2000/svg">
<g id="Frame" clip-path="url(#clip0_2040_22247)">
<path id="Vector" d="M-4.57284 10.7778H5.46034C5.37998 10.8613 5.32743 10.9201 5.27489 10.9757C4.61961 11.6311 3.96124 12.2834 3.30905 12.9449C2.95977 13.2974 2.93504 13.8105 3.22559 14.1908C3.50687 14.5587 4.02924 14.67 4.43415 14.4412C4.53924 14.3825 4.63506 14.2959 4.72161 14.2093C5.94253 12.9913 7.16036 11.7733 8.37819 10.5553C8.84801 10.0854 8.84801 9.54127 8.37819 9.06828C7.15108 7.83788 5.9178 6.61058 4.6907 5.38019C4.40942 5.09887 4.0756 4.99685 3.69542 5.11123C3.33996 5.21634 3.12359 5.46984 3.04941 5.83154C2.97832 6.17778 3.09268 6.46838 3.33996 6.71569C3.97978 7.35562 4.61961 7.99246 5.25634 8.63239C5.31507 8.69112 5.3707 8.75295 5.45725 8.8426H-4.57284C-4.57284 8.75913 -4.57284 8.68185 -4.57284 8.60765C-4.57284 7.12376 -4.57594 5.63987 -4.57284 4.15598C-4.56357 2.27329 -3.30556 0.749208 -1.451 0.387509C-1.20063 0.338046 -0.944083 0.319498 -0.690627 0.319498C3.05559 0.316406 6.8049 0.316406 10.5511 0.316406C12.755 0.316406 14.421 1.98579 14.4241 4.19307C14.4272 7.9399 14.4272 11.6898 14.4241 15.4366C14.4241 17.6408 12.755 19.3102 10.5511 19.3133C6.8049 19.3164 3.05559 19.3164 -0.690627 19.3133C-2.90374 19.3133 -4.56666 17.6439 -4.57284 15.4243C-4.57284 13.9558 -4.57284 12.4874 -4.57284 11.019C-4.57284 10.9448 -4.57284 10.8675 -4.57284 10.7778Z" fill="black"/>
</g>
<defs>
<clipPath id="clip0_2040_22247">
<rect width="19" height="19" fill="white" transform="translate(-4.57422 0.316406)"/>
</clipPath>
</defs>
</svg>
