<svg width="25" height="26" viewBox="0 0 157 26" fill="none" xmlns="http://www.w3.org/2000/svg">
<path d="M65.6229 9.70945V22.498H64.4024C64.2137 22.498 64.0545 22.4686 63.9248 22.4096C63.801 22.3447 63.6801 22.2386 63.5622 22.0912L56.8849 13.5655C56.9202 13.9546 56.9379 14.3143 56.9379 14.6445V22.498H54.8419V9.70945H56.0889C56.1891 9.70945 56.2746 9.71534 56.3454 9.72713C56.422 9.73303 56.4869 9.75072 56.5399 9.7802C56.5989 9.80378 56.6549 9.84211 56.708 9.89517C56.761 9.94234 56.82 10.0072 56.8849 10.0897L63.5887 18.6509C63.571 18.4445 63.5563 18.2411 63.5445 18.0406C63.5327 17.8401 63.5268 17.6544 63.5268 17.4834V9.70945H65.6229ZM71.8647 13.2825C72.5369 13.2825 73.1471 13.3915 73.6955 13.6097C74.2497 13.8279 74.7214 14.1374 75.1105 14.5383C75.5056 14.9393 75.8092 15.4286 76.0215 16.0065C76.2337 16.5843 76.3399 17.2299 76.3399 17.9433C76.3399 18.6626 76.2337 19.3112 76.0215 19.889C75.8092 20.4668 75.5056 20.9592 75.1105 21.366C74.7214 21.7728 74.2497 22.0853 73.6955 22.3035C73.1471 22.5216 72.5369 22.6307 71.8647 22.6307C71.1867 22.6307 70.5705 22.5216 70.0163 22.3035C69.4621 22.0853 68.9874 21.7728 68.5924 21.366C68.2033 20.9592 67.8996 20.4668 67.6815 19.889C67.4692 19.3112 67.3631 18.6626 67.3631 17.9433C67.3631 17.2299 67.4692 16.5843 67.6815 16.0065C67.8996 15.4286 68.2033 14.9393 68.5924 14.5383C68.9874 14.1374 69.4621 13.8279 70.0163 13.6097C70.5705 13.3915 71.1867 13.2825 71.8647 13.2825ZM71.8647 20.9503C72.6194 20.9503 73.1766 20.6968 73.5363 20.1897C73.9018 19.6827 74.0846 18.9398 74.0846 17.961C74.0846 16.9823 73.9018 16.2364 73.5363 15.7234C73.1766 15.2105 72.6194 14.954 71.8647 14.954C71.0982 14.954 70.5293 15.2134 70.1578 15.7323C69.7923 16.2453 69.6095 16.9882 69.6095 17.961C69.6095 18.9339 69.7923 19.6768 70.1578 20.1897C70.5293 20.6968 71.0982 20.9503 71.8647 20.9503ZM86.9874 22.498H84.8029V15.0601H80.5931V19.9775C80.5931 20.2605 80.6609 20.4816 80.7965 20.6408C80.938 20.8 81.1296 20.8796 81.3713 20.8796C81.5069 20.8796 81.619 20.8648 81.7074 20.8354C81.8017 20.8 81.8813 20.7646 81.9462 20.7292C82.017 20.6938 82.0789 20.6614 82.1319 20.6319C82.185 20.5966 82.2381 20.5789 82.2911 20.5789C82.356 20.5789 82.409 20.5966 82.4503 20.6319C82.4916 20.6614 82.5358 20.7086 82.583 20.7734L83.2374 21.8347C82.9191 22.1001 82.5535 22.3005 82.1408 22.4361C81.728 22.5717 81.3006 22.6396 80.8584 22.6396C80.0683 22.6396 79.461 22.4184 79.0365 21.9762C78.6179 21.5281 78.4086 20.912 78.4086 20.1278V15.0601H77.4799C77.362 15.0601 77.2618 15.0218 77.1792 14.9452C77.0967 14.8685 77.0554 14.7535 77.0554 14.6002V13.7335L78.5147 13.4859L78.9746 11.0184C79.0041 10.9005 79.0601 10.8091 79.1426 10.7442C79.2252 10.6794 79.3313 10.6469 79.461 10.6469H80.5931V13.5036H86.9874V22.498ZM87.3677 10.7442C87.3677 10.9329 87.3293 11.1127 87.2527 11.2837C87.176 11.4488 87.0728 11.5932 86.9431 11.7171C86.8193 11.8409 86.669 11.9411 86.4921 12.0178C86.3211 12.0885 86.1383 12.1239 85.9437 12.1239C85.7551 12.1239 85.5782 12.0885 85.4131 12.0178C85.248 11.9411 85.1036 11.8409 84.9797 11.7171C84.8559 11.5932 84.7557 11.4488 84.679 11.2837C84.6083 11.1127 84.5729 10.9329 84.5729 10.7442C84.5729 10.5496 84.6083 10.3698 84.679 10.2047C84.7557 10.0337 84.8559 9.88633 84.9797 9.76251C85.1036 9.6328 85.248 9.53256 85.4131 9.46181C85.5782 9.38516 85.7551 9.34684 85.9437 9.34684C86.1383 9.34684 86.3211 9.38516 86.4921 9.46181C86.669 9.53256 86.8193 9.6328 86.9431 9.76251C87.0728 9.88633 87.176 10.0337 87.2527 10.2047C87.3293 10.3698 87.3677 10.5496 87.3677 10.7442ZM89.8627 22.498V15.069L89.0755 14.9452C88.9045 14.9098 88.766 14.8508 88.6599 14.7683C88.5596 14.6798 88.5095 14.556 88.5095 14.3968V13.5036H89.8627V13.2117C89.8627 12.6575 89.9541 12.1445 90.1368 11.6728C90.3196 11.1953 90.5967 10.7825 90.9682 10.4347C91.3396 10.0868 91.8084 9.81558 92.3744 9.621C92.9463 9.42054 93.6185 9.3203 94.3909 9.3203C94.6385 9.3203 94.8891 9.33504 95.1426 9.36453C95.402 9.38811 95.6261 9.42938 95.8148 9.48834L95.744 10.6204C95.7322 10.756 95.6585 10.8385 95.5229 10.868C95.3873 10.8916 95.2193 10.9034 95.0188 10.9034C94.4469 10.9034 93.9663 10.9535 93.5772 11.0538C93.1939 11.154 92.8815 11.3043 92.6397 11.5048C92.4039 11.6994 92.2329 11.947 92.1268 12.2477C92.0265 12.5425 91.9764 12.8874 91.9764 13.2825V13.5036H97.6013V22.498H95.4168V15.0601H92.0472V22.498H89.8627ZM106.341 15.3432C106.276 15.4257 106.211 15.4906 106.146 15.5377C106.087 15.5849 105.999 15.6085 105.881 15.6085C105.769 15.6085 105.66 15.576 105.554 15.5112C105.448 15.4404 105.321 15.3638 105.173 15.2812C105.026 15.1928 104.849 15.1162 104.643 15.0513C104.442 14.9805 104.192 14.9452 103.891 14.9452C103.508 14.9452 103.172 15.0159 102.883 15.1574C102.594 15.293 102.352 15.4906 102.158 15.75C101.969 16.0094 101.827 16.3248 101.733 16.6963C101.639 17.0619 101.591 17.4775 101.591 17.9433C101.591 18.4268 101.642 18.8572 101.742 19.2346C101.848 19.6119 101.998 19.9303 102.193 20.1897C102.387 20.4433 102.623 20.6378 102.9 20.7734C103.178 20.9032 103.49 20.968 103.838 20.968C104.186 20.968 104.466 20.9267 104.678 20.8442C104.896 20.7558 105.079 20.6614 105.226 20.5612C105.374 20.4551 105.501 20.3607 105.607 20.2782C105.719 20.1897 105.843 20.1455 105.978 20.1455C106.155 20.1455 106.288 20.2133 106.376 20.3489L107.004 21.1449C106.762 21.4279 106.5 21.6667 106.217 21.8613C105.934 22.0499 105.639 22.2032 105.333 22.3212C105.032 22.4332 104.719 22.5128 104.395 22.56C104.077 22.6071 103.758 22.6307 103.44 22.6307C102.88 22.6307 102.352 22.5275 101.857 22.3212C101.362 22.1089 100.928 21.8023 100.557 21.4014C100.185 21.0004 99.8905 20.5111 99.6723 19.9333C99.4601 19.3495 99.3539 18.6862 99.3539 17.9433C99.3539 17.2771 99.4483 16.6609 99.6369 16.0949C99.8315 15.523 100.115 15.0307 100.486 14.6179C100.857 14.1993 101.317 13.8721 101.866 13.6362C102.414 13.4004 103.045 13.2825 103.758 13.2825C104.436 13.2825 105.029 13.3915 105.536 13.6097C106.049 13.8279 106.509 14.1404 106.916 14.5472L106.341 15.3432ZM113.167 18.6243C112.536 18.6538 112.006 18.7098 111.575 18.7924C111.145 18.869 110.8 18.9692 110.54 19.0931C110.281 19.2169 110.095 19.3613 109.983 19.5264C109.871 19.6915 109.815 19.8713 109.815 20.0659C109.815 20.4492 109.927 20.7233 110.151 20.8884C110.381 21.0535 110.679 21.1361 111.044 21.1361C111.493 21.1361 111.879 21.0565 112.203 20.8973C112.533 20.7322 112.855 20.4845 113.167 20.1544V18.6243ZM108.161 14.6887C109.205 13.7335 110.461 13.2559 111.929 13.2559C112.46 13.2559 112.934 13.3444 113.353 13.5213C113.771 13.6922 114.125 13.934 114.414 14.2465C114.703 14.5531 114.921 14.9216 115.069 15.352C115.222 15.7824 115.298 16.2541 115.298 16.7671V22.498H114.308C114.102 22.498 113.942 22.4686 113.83 22.4096C113.718 22.3447 113.63 22.218 113.565 22.0293L113.37 21.3748C113.141 21.5812 112.916 21.764 112.698 21.9232C112.48 22.0765 112.253 22.2062 112.017 22.3123C111.781 22.4184 111.528 22.498 111.257 22.5511C110.991 22.6101 110.697 22.6396 110.372 22.6396C109.989 22.6396 109.635 22.5894 109.311 22.4892C108.987 22.3831 108.707 22.2268 108.471 22.0205C108.235 21.8141 108.052 21.5576 107.922 21.251C107.793 20.9444 107.728 20.5877 107.728 20.1809C107.728 19.9509 107.766 19.7239 107.843 19.4999C107.92 19.2699 108.043 19.0518 108.214 18.8454C108.391 18.6391 108.618 18.4445 108.895 18.2617C109.172 18.0789 109.511 17.9197 109.912 17.7841C110.319 17.6485 110.791 17.5394 111.327 17.4569C111.864 17.3685 112.477 17.3154 113.167 17.2977V16.7671C113.167 16.1598 113.037 15.7117 112.778 15.4227C112.518 15.1279 112.144 14.9805 111.655 14.9805C111.301 14.9805 111.006 15.0218 110.77 15.1044C110.54 15.1869 110.337 15.2812 110.16 15.3874C109.983 15.4876 109.821 15.579 109.674 15.6615C109.532 15.7441 109.373 15.7854 109.196 15.7854C109.043 15.7854 108.913 15.747 108.807 15.6704C108.701 15.5878 108.615 15.4935 108.55 15.3874L108.161 14.6887ZM126.389 22.498H124.204V15.0601H119.994V19.9775C119.994 20.2605 120.062 20.4816 120.198 20.6408C120.339 20.8 120.531 20.8796 120.773 20.8796C120.908 20.8796 121.02 20.8648 121.109 20.8354C121.203 20.8 121.283 20.7646 121.347 20.7292C121.418 20.6938 121.48 20.6614 121.533 20.6319C121.586 20.5966 121.639 20.5789 121.692 20.5789C121.757 20.5789 121.81 20.5966 121.852 20.6319C121.893 20.6614 121.937 20.7086 121.984 20.7734L122.639 21.8347C122.32 22.1001 121.955 22.3005 121.542 22.4361C121.129 22.5717 120.702 22.6396 120.26 22.6396C119.47 22.6396 118.862 22.4184 118.438 21.9762C118.019 21.5281 117.81 20.912 117.81 20.1278V15.0601H116.881C116.763 15.0601 116.663 15.0218 116.58 14.9452C116.498 14.8685 116.457 14.7535 116.457 14.6002V13.7335L117.916 13.4859L118.376 11.0184C118.405 10.9005 118.461 10.8091 118.544 10.7442C118.626 10.6794 118.733 10.6469 118.862 10.6469H119.994V13.5036H126.389V22.498ZM126.769 10.7442C126.769 10.9329 126.731 11.1127 126.654 11.2837C126.577 11.4488 126.474 11.5932 126.344 11.7171C126.221 11.8409 126.07 11.9411 125.893 12.0178C125.722 12.0885 125.54 12.1239 125.345 12.1239C125.156 12.1239 124.979 12.0885 124.814 12.0178C124.649 11.9411 124.505 11.8409 124.381 11.7171C124.257 11.5932 124.157 11.4488 124.08 11.2837C124.01 11.1127 123.974 10.9329 123.974 10.7442C123.974 10.5496 124.01 10.3698 124.08 10.2047C124.157 10.0337 124.257 9.88633 124.381 9.76251C124.505 9.6328 124.649 9.53256 124.814 9.46181C124.979 9.38516 125.156 9.34684 125.345 9.34684C125.54 9.34684 125.722 9.38516 125.893 9.46181C126.07 9.53256 126.221 9.6328 126.344 9.76251C126.474 9.88633 126.577 10.0337 126.654 10.2047C126.731 10.3698 126.769 10.5496 126.769 10.7442ZM132.634 13.2825C133.306 13.2825 133.916 13.3915 134.464 13.6097C135.018 13.8279 135.49 14.1374 135.879 14.5383C136.274 14.9393 136.578 15.4286 136.79 16.0065C137.003 16.5843 137.109 17.2299 137.109 17.9433C137.109 18.6626 137.003 19.3112 136.79 19.889C136.578 20.4668 136.274 20.9592 135.879 21.366C135.49 21.7728 135.018 22.0853 134.464 22.3035C133.916 22.5216 133.306 22.6307 132.634 22.6307C131.955 22.6307 131.339 22.5216 130.785 22.3035C130.231 22.0853 129.756 21.7728 129.361 21.366C128.972 20.9592 128.668 20.4668 128.45 19.889C128.238 19.3112 128.132 18.6626 128.132 17.9433C128.132 17.2299 128.238 16.5843 128.45 16.0065C128.668 15.4286 128.972 14.9393 129.361 14.5383C129.756 14.1374 130.231 13.8279 130.785 13.6097C131.339 13.3915 131.955 13.2825 132.634 13.2825ZM132.634 20.9503C133.388 20.9503 133.945 20.6968 134.305 20.1897C134.671 19.6827 134.853 18.9398 134.853 17.961C134.853 16.9823 134.671 16.2364 134.305 15.7234C133.945 15.2105 133.388 14.954 132.634 14.954C131.867 14.954 131.298 15.2134 130.927 15.7323C130.561 16.2453 130.378 16.9882 130.378 17.961C130.378 18.9339 130.561 19.6768 130.927 20.1897C131.298 20.6968 131.867 20.9503 132.634 20.9503ZM140.818 14.5383C141.001 14.3556 141.193 14.1875 141.393 14.0342C141.599 13.875 141.815 13.7424 142.039 13.6362C142.269 13.5242 142.513 13.4387 142.773 13.3798C143.032 13.3149 143.315 13.2825 143.622 13.2825C144.117 13.2825 144.556 13.368 144.94 13.539C145.323 13.704 145.641 13.9399 145.895 14.2465C146.154 14.5472 146.349 14.9098 146.478 15.3343C146.614 15.7529 146.682 16.2158 146.682 16.7228V22.498H144.497V16.7228C144.497 16.1686 144.371 15.7411 144.117 15.4404C143.864 15.1338 143.477 14.9805 142.958 14.9805C142.581 14.9805 142.227 15.066 141.897 15.237C141.567 15.408 141.255 15.6409 140.96 15.9357V22.498H138.775V13.424H140.111C140.394 13.424 140.579 13.5566 140.668 13.822L140.818 14.5383ZM154.296 15.1928C154.237 15.2871 154.175 15.3549 154.11 15.3962C154.045 15.4316 153.963 15.4493 153.862 15.4493C153.756 15.4493 153.641 15.4198 153.518 15.3608C153.4 15.3019 153.261 15.237 153.102 15.1663C152.943 15.0896 152.76 15.0218 152.554 14.9629C152.353 14.9039 152.114 14.8744 151.837 14.8744C151.407 14.8744 151.068 14.9658 150.82 15.1486C150.578 15.3314 150.457 15.5702 150.457 15.865C150.457 16.0595 150.519 16.2246 150.643 16.3602C150.773 16.4899 150.941 16.6049 151.147 16.7051C151.36 16.8054 151.598 16.8968 151.864 16.9793C152.129 17.056 152.397 17.1415 152.669 17.2358C152.946 17.3301 153.217 17.4392 153.482 17.563C153.747 17.6809 153.983 17.8342 154.19 18.0229C154.402 18.2057 154.57 18.4268 154.694 18.6862C154.824 18.9457 154.888 19.2582 154.888 19.6237C154.888 20.06 154.809 20.4639 154.65 20.8354C154.496 21.2009 154.266 21.5193 153.96 21.7905C153.653 22.0558 153.273 22.2652 152.819 22.4184C152.371 22.5659 151.852 22.6396 151.262 22.6396C150.95 22.6396 150.643 22.6101 150.343 22.5511C150.048 22.498 149.762 22.4214 149.485 22.3212C149.213 22.2209 148.96 22.103 148.724 21.9674C148.494 21.8318 148.291 21.6844 148.114 21.5252L148.618 20.6938C148.683 20.5936 148.759 20.517 148.848 20.4639C148.936 20.4108 149.048 20.3843 149.184 20.3843C149.32 20.3843 149.446 20.4226 149.564 20.4993C149.688 20.5759 149.83 20.6585 149.989 20.7469C150.148 20.8354 150.334 20.9179 150.546 20.9945C150.764 21.0712 151.038 21.1095 151.368 21.1095C151.628 21.1095 151.849 21.08 152.032 21.0211C152.22 20.9562 152.374 20.8737 152.492 20.7734C152.615 20.6732 152.704 20.5582 152.757 20.4285C152.816 20.2929 152.845 20.1544 152.845 20.0128C152.845 19.8006 152.781 19.6267 152.651 19.491C152.527 19.3554 152.359 19.2375 152.147 19.1373C151.94 19.037 151.702 18.9486 151.43 18.872C151.165 18.7894 150.891 18.701 150.608 18.6066C150.331 18.5123 150.057 18.4032 149.785 18.2794C149.52 18.1497 149.281 17.9875 149.069 17.793C148.863 17.5984 148.695 17.3596 148.565 17.0766C148.441 16.7936 148.379 16.4516 148.379 16.0507C148.379 15.6792 148.453 15.3255 148.6 14.9894C148.748 14.6533 148.963 14.3615 149.246 14.1138C149.535 13.8603 149.891 13.6598 150.316 13.5124C150.746 13.3591 151.242 13.2825 151.802 13.2825C152.427 13.2825 152.996 13.3857 153.509 13.592C154.022 13.7984 154.449 14.0696 154.791 14.4057L154.296 15.1928Z" fill="black"/>
<path d="M13.049 0.464844C13.1137 0.497565 13.1784 0.538468 13.2431 0.571189C13.7041 0.792061 13.9629 1.152 13.9791 1.66737C13.9953 2.06003 13.9872 2.45269 13.9791 2.83717C13.9791 3.00078 14.0276 3.0744 14.1975 3.10712C17.8048 3.76974 20.49 6.39565 21.2342 10.0196C21.3636 10.6331 21.3878 11.2794 21.404 11.9093C21.4364 13.2263 21.3797 14.5515 21.4606 15.8686C21.5981 18.1182 22.5525 19.9997 24.2106 21.5049C24.6878 21.9385 25.0518 22.4211 25.1084 23.0919C25.2216 24.4089 24.3157 25.4479 22.9974 25.5215C22.9165 25.5215 22.8437 25.5215 22.7628 25.5215C16.082 25.5215 9.39311 25.5215 2.7123 25.5215C1.94393 25.5215 1.28879 25.2843 0.803501 24.6544C0.0836557 23.7218 0.23733 22.4375 1.16747 21.6031C1.98437 20.875 2.6476 20.0406 3.14906 19.0589C3.77994 17.8155 4.07111 16.4903 4.07111 15.0996C4.07111 13.8971 4.05493 12.6946 4.0792 11.4921C4.15199 7.36912 7.2174 3.7861 11.2291 3.1153C11.4556 3.0744 11.5203 2.99259 11.5041 2.7799C11.4879 2.54267 11.5203 2.30544 11.5041 2.07639C11.4313 1.29925 11.7225 0.751159 12.4504 0.464844C12.6445 0.464844 12.8387 0.464844 13.0328 0.464844L13.049 0.464844Z" fill="black"/>
</svg>
