<svg width="26" height="27" viewBox="0 0 26 27" fill="none" xmlns="http://www.w3.org/2000/svg">
<path id="Vector" d="M13.1271 0.994141C13.1918 1.02686 13.2565 1.06776 13.3212 1.10049C13.7822 1.32136 14.041 1.6813 14.0572 2.19666C14.0734 2.58932 14.0653 2.98198 14.0572 3.36646C14.0572 3.53007 14.1057 3.6037 14.2756 3.63642C17.8829 4.29903 20.5682 6.92495 21.3123 10.5489C21.4417 11.1624 21.466 11.8087 21.4821 12.4386C21.5145 13.7556 21.4579 15.0808 21.5387 16.3979C21.6762 18.6475 22.6306 20.529 24.2887 22.0342C24.7659 22.4678 25.1299 22.9504 25.1865 23.6212C25.2997 24.9382 24.3939 25.9772 23.0755 26.0508C22.9946 26.0508 22.9218 26.0508 22.8409 26.0508C16.1601 26.0508 9.47124 26.0508 2.79043 26.0508C2.02205 26.0508 1.36691 25.8135 0.881626 25.1837C0.161781 24.2511 0.315455 22.9668 1.24559 22.1324C2.06249 21.4043 2.72572 20.5699 3.22719 19.5882C3.85806 18.3448 4.14924 17.0196 4.14924 15.6289C4.14924 14.4264 4.13306 13.2239 4.15732 12.0214C4.23012 7.89842 7.29552 4.31539 11.3072 3.6446C11.5337 3.6037 11.5984 3.52189 11.5822 3.3092C11.5661 3.07197 11.5984 2.83474 11.5822 2.60568C11.5094 1.82854 11.8006 1.28046 12.5286 0.994141C12.7227 0.994141 12.9168 0.994141 13.1109 0.994141L13.1271 0.994141Z" fill="black"/>
</svg>
